<?xml version="1.0" standalone="no"?>
<!DOCTYPE svg PUBLIC "-//W3C//DTD SVG 20010904//EN"
 "http://www.w3.org/TR/2001/REC-SVG-20010904/DTD/svg10.dtd">
<svg version="1.0" xmlns="http://www.w3.org/2000/svg"
 width="200.000000pt" height="200.000000pt" viewBox="0 0 200.000000 200.000000"
 preserveAspectRatio="xMidYMid meet">
<metadata>
Created by potrace 1.11, written by Peter Selinger 2001-2013
</metadata>
<g transform="translate(0.000000,200.000000) scale(0.100000,-0.100000)"
fill="#000000" stroke="none">
<path d="M713 1561 c-87 -40 -193 -167 -258 -312 l-30 -66 -95 -5 c-113 -6
-189 -37 -216 -89 -18 -35 -13 -89 11 -109 25 -21 89 -24 108 -5 22 21 21 31
-4 56 -24 24 -20 41 14 64 26 16 143 42 152 33 3 -2 -4 -30 -15 -62 -52 -153
-74 -268 -74 -401 -1 -146 10 -180 74 -222 27 -19 100 -33 100 -19 0 2 -7 21
-16 42 -35 84 -28 309 17 524 28 133 27 130 56 130 30 0 131 -25 191 -47 l42
-16 0 -243 0 -244 70 0 70 0 0 499 c0 446 -2 500 -16 505 -34 13 -140 5 -181
-13z m57 -252 c0 -197 -1 -211 -17 -206 -85 28 -189 57 -204 57 -23 0 -23 4 0
71 42 124 112 238 166 271 56 34 55 36 55 -193z"/>
<path d="M1288 1565 c-72 -20 -133 -52 -187 -101 -66 -59 -95 -120 -94 -199 1
-88 32 -137 98 -150 17 -4 39 -9 49 -12 17 -5 16 -1 -7 26 -48 58 -57 151 -22
238 21 51 91 119 148 144 63 27 185 32 261 10 68 -20 137 -88 164 -163 73
-198 47 -555 -50 -668 -42 -50 -111 -64 -168 -35 l-30 16 0 392 0 393 -70 -9
-70 -10 0 -433 0 -434 70 0 70 0 0 30 0 30 48 -29 c59 -37 125 -55 169 -46 79
15 163 135 203 289 70 276 5 544 -160 659 -79 55 -161 77 -279 76 -53 0 -117
-7 -143 -14z"/>
</g>
</svg>
